<svg xmlns="http://www.w3.org/2000/svg" xmlns:xlink="http://www.w3.org/1999/xlink" width="500" zoomAndPan="magnify" viewBox="0 0 375 374.999991" height="500" preserveAspectRatio="xMidYMid meet" version="1.0"><defs><g/><clipPath id="e17bae8fcf"><path d="M 127 96 L 247.738281 96 L 247.738281 216.722656 L 127 216.722656 Z M 127 96 " clip-rule="nonzero"/></clipPath></defs><g fill="#ffffff" fill-opacity="1"><g transform="translate(70.029839, 259.887405)"><g><path d="M 16.402344 0 L 16.402344 -4.515625 L 6.746094 -4.515625 L 6.746094 -8.527344 L 15.46875 -8.527344 L 15.46875 -13.015625 L 6.746094 -13.015625 L 6.746094 -17.023438 L 16.402344 -17.023438 L 16.402344 -21.539062 L 1.695312 -21.539062 L 1.695312 0 Z M 16.402344 0 "/></g></g></g><g fill="#ffffff" fill-opacity="1"><g transform="translate(89.049971, 259.887405)"><g><path d="M 12.730469 0 L 20.101562 -21.539062 L 14.734375 -21.539062 L 9.992188 -5.675781 L 5.25 -21.539062 L -0.113281 -21.539062 L 7.253906 0 Z M 12.730469 0 "/></g></g></g><g fill="#ffffff" fill-opacity="1"><g transform="translate(110.440484, 259.887405)"><g><path d="M 16.402344 0 L 16.402344 -4.515625 L 6.746094 -4.515625 L 6.746094 -8.527344 L 15.46875 -8.527344 L 15.46875 -13.015625 L 6.746094 -13.015625 L 6.746094 -17.023438 L 16.402344 -17.023438 L 16.402344 -21.539062 L 1.695312 -21.539062 L 1.695312 0 Z M 16.402344 0 "/></g></g></g><g fill="#ffffff" fill-opacity="1"><g transform="translate(129.460617, 259.887405)"><g><path d="M 6.746094 0 L 6.746094 -13.15625 L 15.019531 0 L 20.15625 0 L 20.15625 -21.539062 L 15.101562 -21.539062 L 15.101562 -8.46875 L 6.832031 -21.539062 L 1.695312 -21.539062 L 1.695312 0 Z M 6.746094 0 "/></g></g></g><g fill="#ffffff" fill-opacity="1"><g transform="translate(152.713574, 259.887405)"><g><path d="M 11.347656 0 L 11.347656 -17.023438 L 17.417969 -17.023438 L 17.417969 -21.539062 L 0.226562 -21.539062 L 0.226562 -17.023438 L 6.296875 -17.023438 L 6.296875 0 Z M 11.347656 0 "/></g></g></g><g fill="#ffffff" fill-opacity="1"><g transform="translate(175.594987, 259.887405)"><g><path d="M 11.152344 0.28125 C 15.753906 0.28125 18.800781 -2.230469 19.507812 -6.097656 L 17.445312 -6.097656 C 16.851562 -3.132812 14.453125 -1.46875 11.09375 -1.46875 C 5.929688 -1.46875 3.359375 -5.503906 3.359375 -10.785156 C 3.359375 -16.035156 5.929688 -20.070312 11.09375 -20.070312 C 14.453125 -20.070312 16.882812 -18.40625 17.445312 -15.835938 L 19.507812 -15.835938 C 18.828125 -19.335938 15.753906 -21.820312 11.152344 -21.820312 C 4.488281 -21.820312 1.410156 -16.628906 1.410156 -10.785156 C 1.410156 -4.941406 4.488281 0.28125 11.152344 0.28125 Z M 11.152344 0.28125 "/></g></g></g><g fill="#ffffff" fill-opacity="1"><g transform="translate(198.255611, 259.887405)"><g><path d="M 11.207031 0.28125 C 17.839844 0.28125 21.003906 -4.910156 21.003906 -10.785156 C 21.003906 -16.65625 17.839844 -21.820312 11.207031 -21.820312 C 4.574219 -21.820312 1.410156 -16.65625 1.410156 -10.785156 C 1.410156 -4.910156 4.574219 0.28125 11.207031 0.28125 Z M 11.207031 -1.46875 C 6.042969 -1.46875 3.359375 -5.503906 3.359375 -10.785156 C 3.359375 -16.035156 6.042969 -20.070312 11.207031 -20.070312 C 16.375 -20.070312 19.054688 -16.035156 19.054688 -10.785156 C 19.054688 -5.503906 16.375 -1.46875 11.207031 -1.46875 Z M 11.207031 -1.46875 "/></g></g></g><g fill="#ffffff" fill-opacity="1"><g transform="translate(222.637591, 259.887405)"><g><path d="M 4.179688 0 L 4.179688 -19.535156 L 11.152344 0 L 13.578125 0 L 20.550781 -19.480469 L 20.550781 0 L 22.5 0 L 22.5 -21.539062 L 19.367188 -21.539062 L 12.363281 -1.976562 L 5.363281 -21.539062 L 2.230469 -21.539062 L 2.230469 0 Z M 4.179688 0 "/></g></g></g><g fill="#ffffff" fill-opacity="1"><g transform="translate(249.333502, 259.887405)"><g><path d="M 4.179688 0 L 4.179688 -9.371094 L 9.683594 -9.371094 C 13.890625 -9.371094 16.515625 -11.601562 16.515625 -15.46875 C 16.515625 -19.480469 13.832031 -21.539062 9.683594 -21.539062 L 2.230469 -21.539062 L 2.230469 0 Z M 4.179688 -19.789062 L 9.429688 -19.789062 C 12.703125 -19.789062 14.59375 -18.179688 14.59375 -15.414062 C 14.59375 -12.617188 12.761719 -11.066406 9.429688 -11.066406 L 4.179688 -11.066406 Z M 4.179688 -19.789062 "/></g></g></g><g fill="#ffffff" fill-opacity="1"><g transform="translate(268.8054, 259.887405)"><g><path d="M 2.457031 0 L 4.628906 -5.816406 L 14.792969 -5.816406 L 16.964844 0 L 18.96875 0 L 10.839844 -21.539062 L 8.582031 -21.539062 L 0.453125 0 Z M 9.710938 -19.535156 L 14.171875 -7.566406 L 5.25 -7.566406 Z M 9.710938 -19.535156 "/></g></g></g><g fill="#ffffff" fill-opacity="1"><g transform="translate(290.196174, 259.887405)"><g><path d="M 9.570312 0.28125 C 14.453125 0.28125 17.050781 -2.257812 17.050781 -6.011719 C 17.050781 -10.585938 13.238281 -11.433594 9.738281 -12.195312 C 6.773438 -12.84375 4.007812 -13.464844 4.007812 -16.289062 C 4.007812 -18.632812 6.097656 -20.070312 9.035156 -20.070312 C 11.800781 -20.070312 13.890625 -18.941406 14.480469 -15.867188 L 16.34375 -15.867188 C 15.667969 -20.070312 12.816406 -21.820312 9.0625 -21.820312 C 5.054688 -21.820312 2.0625 -19.621094 2.0625 -16.148438 C 2.0625 -11.996094 5.589844 -11.234375 8.976562 -10.5 C 12.109375 -9.824219 15.101562 -9.175781 15.101562 -5.929688 C 15.101562 -3.132812 13.125 -1.46875 9.710938 -1.46875 C 6.832031 -1.46875 3.8125 -2.570312 3.191406 -6.097656 L 1.214844 -6.097656 C 1.917969 -1.550781 5.503906 0.28125 9.570312 0.28125 Z M 9.570312 0.28125 "/></g></g></g><g fill="#ffffff" fill-opacity="1"><g transform="translate(310.599295, 259.887405)"><g><path d="M 9.570312 0.28125 C 14.453125 0.28125 17.050781 -2.257812 17.050781 -6.011719 C 17.050781 -10.585938 13.238281 -11.433594 9.738281 -12.195312 C 6.773438 -12.84375 4.007812 -13.464844 4.007812 -16.289062 C 4.007812 -18.632812 6.097656 -20.070312 9.035156 -20.070312 C 11.800781 -20.070312 13.890625 -18.941406 14.480469 -15.867188 L 16.34375 -15.867188 C 15.667969 -20.070312 12.816406 -21.820312 9.0625 -21.820312 C 5.054688 -21.820312 2.0625 -19.621094 2.0625 -16.148438 C 2.0625 -11.996094 5.589844 -11.234375 8.976562 -10.5 C 12.109375 -9.824219 15.101562 -9.175781 15.101562 -5.929688 C 15.101562 -3.132812 13.125 -1.46875 9.710938 -1.46875 C 6.832031 -1.46875 3.8125 -2.570312 3.191406 -6.097656 L 1.214844 -6.097656 C 1.917969 -1.550781 5.503906 0.28125 9.570312 0.28125 Z M 9.570312 0.28125 "/></g></g></g><g clip-path="url(#e17bae8fcf)"><path fill="#ff914d" d="M 240.316406 148.875 C 237.027344 125.300781 218.375 106.648438 194.800781 103.359375 L 188.238281 96.472656 C 187.753906 95.964844 186.941406 95.964844 186.453125 96.472656 L 179.890625 103.359375 C 156.320312 106.648438 137.667969 125.300781 134.378906 148.875 L 127.488281 155.441406 C 126.980469 155.925781 126.980469 156.738281 127.488281 157.226562 L 134.378906 163.792969 C 137.667969 187.367188 156.320312 206.019531 179.890625 209.308594 L 186.453125 216.191406 C 186.941406 216.703125 187.753906 216.703125 188.238281 216.191406 L 194.800781 209.308594 C 218.375 206.019531 237.027344 187.367188 240.316406 163.792969 L 247.207031 157.226562 C 247.714844 156.738281 247.714844 155.925781 247.207031 155.441406 Z M 187.347656 198.933594 C 163.820312 198.933594 144.746094 179.859375 144.746094 156.332031 C 144.746094 132.804688 163.820312 113.734375 187.347656 113.734375 C 210.875 113.734375 229.949219 132.804688 229.949219 156.332031 C 229.949219 179.859375 210.875 198.933594 187.347656 198.933594 Z M 187.347656 198.933594 " fill-opacity="1" fill-rule="nonzero"/></g><path fill="#ff914d" d="M 194.550781 154.398438 C 194.164062 153.824219 193.355469 153.746094 192.867188 154.234375 L 185.34375 161.757812 C 184.855469 162.246094 184.933594 163.058594 185.507812 163.441406 L 211.246094 180.734375 C 211.636719 180.996094 212.105469 180.527344 211.839844 180.136719 Z M 194.550781 154.398438 " fill-opacity="1" fill-rule="nonzero"/><path fill="#ff914d" d="M 189.1875 149.226562 L 163.449219 131.933594 C 163.058594 131.667969 162.589844 132.136719 162.851562 132.53125 L 180.144531 158.269531 C 180.53125 158.839844 181.339844 158.917969 181.828125 158.433594 L 189.351562 150.90625 C 189.839844 150.417969 189.761719 149.609375 189.1875 149.226562 Z M 189.1875 149.226562 " fill-opacity="1" fill-rule="nonzero"/></svg>