<svg xmlns="http://www.w3.org/2000/svg" xmlns:xlink="http://www.w3.org/1999/xlink" width="500" zoomAndPan="magnify" viewBox="0 0 375 374.999991" height="500" preserveAspectRatio="xMidYMid meet" version="1.0"><defs><clipPath id="470f966a78"><path d="M 16 11.195312 L 359 11.195312 L 359 354.695312 L 16 354.695312 Z M 16 11.195312 " clip-rule="nonzero"/></clipPath></defs><g clip-path="url(#470f966a78)"><path fill="#ff914d" d="M 338.214844 161.679688 C 328.855469 94.621094 275.800781 41.554688 208.738281 32.203125 L 190.070312 12.621094 C 188.6875 11.167969 186.375 11.167969 184.992188 12.621094 L 166.324219 32.203125 C 99.261719 41.554688 46.207031 94.621094 36.847656 161.679688 L 17.25 180.359375 C 15.800781 181.742188 15.800781 184.054688 17.25 185.4375 L 36.847656 204.121094 C 46.207031 271.179688 99.261719 324.246094 166.324219 333.597656 L 184.992188 353.179688 C 186.375 354.632812 188.6875 354.632812 190.070312 353.179688 L 208.738281 333.597656 C 275.800781 324.242188 328.855469 271.179688 338.214844 204.121094 L 357.8125 185.4375 C 359.261719 184.054688 359.261719 181.742188 357.8125 180.359375 Z M 187.53125 304.085938 C 120.601562 304.085938 66.34375 249.828125 66.34375 182.902344 C 66.34375 115.96875 120.601562 61.714844 187.53125 61.714844 C 254.460938 61.714844 308.71875 115.96875 308.71875 182.902344 C 308.71875 249.828125 254.460938 304.085938 187.53125 304.085938 Z M 187.53125 304.085938 " fill-opacity="1" fill-rule="nonzero"/></g><path fill="#ff914d" d="M 208.019531 177.394531 C 206.925781 175.769531 204.621094 175.542969 203.234375 176.929688 L 181.828125 198.335938 C 180.441406 199.722656 180.667969 202.027344 182.292969 203.121094 L 255.511719 252.3125 C 256.625 253.0625 257.960938 251.730469 257.210938 250.613281 Z M 208.019531 177.394531 " fill-opacity="1" fill-rule="nonzero"/><path fill="#ff914d" d="M 192.769531 162.679688 L 119.550781 113.488281 C 118.433594 112.738281 117.101562 114.070312 117.851562 115.1875 L 167.042969 188.40625 C 168.136719 190.03125 170.441406 190.253906 171.824219 188.871094 L 193.234375 167.460938 C 194.617188 166.078125 194.394531 163.773438 192.769531 162.679688 Z M 192.769531 162.679688 " fill-opacity="1" fill-rule="nonzero"/></svg>